<svg width="686" height="82" viewBox="0 0 686 82" fill="none" xmlns="http://www.w3.org/2000/svg">
<path d="M145.76 41.376C147.456 42.048 148.832 43.072 149.888 44.448C150.976 45.824 151.52 47.6 151.52 49.776C151.52 53.584 150.432 56.24 148.256 57.744C146.08 59.248 143.488 60 140.48 60H128.528C127.696 60 126.992 59.728 126.416 59.184C125.872 58.608 125.6 57.904 125.6 57.072V29.328C125.6 28.496 125.872 27.808 126.416 27.264C126.992 26.688 127.696 26.4 128.528 26.4H140.624C146.704 26.4 149.744 29.248 149.744 34.944C149.744 36.384 149.392 37.664 148.688 38.784C148.016 39.872 147.04 40.736 145.76 41.376ZM143.504 36C143.504 34.688 143.168 33.712 142.496 33.072C141.856 32.4 140.944 32.064 139.76 32.064H131.84V39.552H139.904C140.864 39.552 141.696 39.232 142.4 38.592C143.136 37.952 143.504 37.088 143.504 36ZM140.48 54.48C141.984 54.48 143.152 54.08 143.984 53.28C144.848 52.48 145.28 51.312 145.28 49.776C145.28 47.888 144.784 46.656 143.792 46.08C142.8 45.504 141.584 45.216 140.144 45.216H131.84V54.48H140.48ZM179.757 33.84C180.589 33.84 181.277 34.112 181.821 34.656C182.365 35.2 182.637 35.904 182.637 36.768V57.072C182.637 57.904 182.365 58.608 181.821 59.184C181.277 59.728 180.589 60 179.757 60C178.925 60 178.237 59.728 177.693 59.184C177.181 58.64 176.909 57.952 176.877 57.12C176.077 58.048 174.989 58.848 173.613 59.52C172.269 60.16 170.845 60.48 169.341 60.48C167.133 60.48 165.133 59.92 163.341 58.8C161.549 57.648 160.125 56.064 159.069 54.048C158.045 52.032 157.533 49.744 157.533 47.184C157.533 44.624 158.045 42.336 159.069 40.32C160.093 38.272 161.485 36.688 163.245 35.568C165.037 34.416 167.005 33.84 169.149 33.84C170.685 33.84 172.125 34.128 173.469 34.704C174.813 35.248 175.949 35.952 176.877 36.816V36.768C176.877 35.936 177.149 35.248 177.693 34.704C178.237 34.128 178.925 33.84 179.757 33.84ZM170.061 55.2C172.141 55.2 173.837 54.448 175.149 52.944C176.461 51.408 177.117 49.488 177.117 47.184C177.117 44.88 176.461 42.96 175.149 41.424C173.837 39.888 172.141 39.12 170.061 39.12C168.013 39.12 166.333 39.888 165.021 41.424C163.709 42.96 163.053 44.88 163.053 47.184C163.053 49.488 163.693 51.408 164.973 52.944C166.285 54.448 167.981 55.2 170.061 55.2ZM205.007 33.84C208.271 33.84 210.527 34.816 211.775 36.768C213.023 38.688 213.647 41.36 213.647 44.784V57.072C213.647 57.904 213.375 58.608 212.831 59.184C212.287 59.728 211.599 60 210.767 60C209.935 60 209.247 59.728 208.703 59.184C208.159 58.608 207.887 57.904 207.887 57.072V44.784C207.887 43.024 207.519 41.648 206.783 40.656C206.047 39.632 204.783 39.12 202.991 39.12C201.135 39.12 199.679 39.664 198.623 40.752C197.567 41.808 197.039 43.152 197.039 44.784V57.072C197.039 57.904 196.767 58.608 196.223 59.184C195.679 59.728 194.991 60 194.159 60C193.327 60 192.639 59.728 192.095 59.184C191.551 58.608 191.279 57.904 191.279 57.072V37.248C191.279 36.416 191.551 35.728 192.095 35.184C192.639 34.608 193.327 34.32 194.159 34.32C194.991 34.32 195.679 34.608 196.223 35.184C196.767 35.728 197.039 36.416 197.039 37.248V38.064C197.903 36.912 199.023 35.92 200.399 35.088C201.807 34.256 203.343 33.84 205.007 33.84ZM243.057 33.84C243.889 33.84 244.577 34.112 245.121 34.656C245.665 35.2 245.937 35.904 245.937 36.768V57.072C245.937 57.904 245.665 58.608 245.121 59.184C244.577 59.728 243.889 60 243.057 60C242.225 60 241.537 59.728 240.993 59.184C240.481 58.64 240.209 57.952 240.177 57.12C239.377 58.048 238.289 58.848 236.913 59.52C235.569 60.16 234.145 60.48 232.641 60.48C230.433 60.48 228.433 59.92 226.641 58.8C224.849 57.648 223.425 56.064 222.369 54.048C221.345 52.032 220.833 49.744 220.833 47.184C220.833 44.624 221.345 42.336 222.369 40.32C223.393 38.272 224.785 36.688 226.545 35.568C228.337 34.416 230.305 33.84 232.449 33.84C233.985 33.84 235.425 34.128 236.769 34.704C238.113 35.248 239.249 35.952 240.177 36.816V36.768C240.177 35.936 240.449 35.248 240.993 34.704C241.537 34.128 242.225 33.84 243.057 33.84ZM233.361 55.2C235.441 55.2 237.137 54.448 238.449 52.944C239.761 51.408 240.417 49.488 240.417 47.184C240.417 44.88 239.761 42.96 238.449 41.424C237.137 39.888 235.441 39.12 233.361 39.12C231.313 39.12 229.633 39.888 228.321 41.424C227.009 42.96 226.353 44.88 226.353 47.184C226.353 49.488 226.993 51.408 228.273 52.944C229.585 54.448 231.281 55.2 233.361 55.2ZM268.307 33.84C271.571 33.84 273.827 34.816 275.075 36.768C276.323 38.688 276.947 41.36 276.947 44.784V57.072C276.947 57.904 276.675 58.608 276.131 59.184C275.587 59.728 274.899 60 274.067 60C273.235 60 272.547 59.728 272.003 59.184C271.459 58.608 271.187 57.904 271.187 57.072V44.784C271.187 43.024 270.819 41.648 270.083 40.656C269.347 39.632 268.083 39.12 266.291 39.12C264.435 39.12 262.979 39.664 261.923 40.752C260.867 41.808 260.339 43.152 260.339 44.784V57.072C260.339 57.904 260.067 58.608 259.523 59.184C258.979 59.728 258.291 60 257.459 60C256.627 60 255.939 59.728 255.395 59.184C254.851 58.608 254.579 57.904 254.579 57.072V37.248C254.579 36.416 254.851 35.728 255.395 35.184C255.939 34.608 256.627 34.32 257.459 34.32C258.291 34.32 258.979 34.608 259.523 35.184C260.067 35.728 260.339 36.416 260.339 37.248V38.064C261.203 36.912 262.323 35.92 263.699 35.088C265.107 34.256 266.643 33.84 268.307 33.84ZM306.357 33.84C307.189 33.84 307.877 34.112 308.421 34.656C308.965 35.2 309.237 35.904 309.237 36.768V57.072C309.237 57.904 308.965 58.608 308.421 59.184C307.877 59.728 307.189 60 306.357 60C305.525 60 304.837 59.728 304.293 59.184C303.781 58.64 303.509 57.952 303.477 57.12C302.677 58.048 301.589 58.848 300.213 59.52C298.869 60.16 297.445 60.48 295.941 60.48C293.733 60.48 291.733 59.92 289.941 58.8C288.149 57.648 286.725 56.064 285.669 54.048C284.645 52.032 284.133 49.744 284.133 47.184C284.133 44.624 284.645 42.336 285.669 40.32C286.693 38.272 288.085 36.688 289.845 35.568C291.637 34.416 293.605 33.84 295.749 33.84C297.285 33.84 298.725 34.128 300.069 34.704C301.413 35.248 302.549 35.952 303.477 36.816V36.768C303.477 35.936 303.749 35.248 304.293 34.704C304.837 34.128 305.525 33.84 306.357 33.84ZM296.661 55.2C298.741 55.2 300.437 54.448 301.749 52.944C303.061 51.408 303.717 49.488 303.717 47.184C303.717 44.88 303.061 42.96 301.749 41.424C300.437 39.888 298.741 39.12 296.661 39.12C294.613 39.12 292.933 39.888 291.621 41.424C290.309 42.96 289.653 44.88 289.653 47.184C289.653 49.488 290.293 51.408 291.573 52.944C292.885 54.448 294.581 55.2 296.661 55.2ZM340.213 31.92V40.368H350.581C351.413 40.368 352.101 40.64 352.645 41.184C353.221 41.696 353.509 42.368 353.509 43.2C353.509 43.904 353.221 44.528 352.645 45.072C352.101 45.616 351.413 45.888 350.581 45.888H340.213V57.072C340.213 57.904 339.909 58.608 339.301 59.184C338.725 59.728 338.037 60 337.237 60C336.341 60 335.605 59.728 335.029 59.184C334.485 58.64 334.213 57.936 334.213 57.072V29.328C334.213 28.496 334.485 27.808 335.029 27.264C335.605 26.688 336.309 26.4 337.141 26.4H352.741C353.573 26.4 354.261 26.672 354.805 27.216C355.381 27.728 355.669 28.4 355.669 29.232C355.669 29.936 355.381 30.56 354.805 31.104C354.261 31.648 353.573 31.92 352.741 31.92H340.213ZM387.055 47.184C387.055 49.744 386.479 52.048 385.327 54.096C384.175 56.112 382.591 57.68 380.575 58.8C378.591 59.92 376.399 60.48 373.999 60.48C371.567 60.48 369.359 59.92 367.375 58.8C365.391 57.68 363.823 56.112 362.671 54.096C361.519 52.048 360.943 49.744 360.943 47.184C360.943 44.624 361.519 42.336 362.671 40.32C363.823 38.272 365.391 36.688 367.375 35.568C369.359 34.416 371.567 33.84 373.999 33.84C376.399 33.84 378.591 34.416 380.575 35.568C382.591 36.688 384.175 38.272 385.327 40.32C386.479 42.336 387.055 44.624 387.055 47.184ZM381.295 47.184C381.295 45.616 380.959 44.224 380.287 43.008C379.647 41.76 378.767 40.8 377.647 40.128C376.559 39.456 375.343 39.12 373.999 39.12C372.655 39.12 371.423 39.456 370.303 40.128C369.215 40.8 368.335 41.76 367.663 43.008C367.023 44.224 366.703 45.616 366.703 47.184C366.703 48.752 367.023 50.144 367.663 51.36C368.335 52.576 369.215 53.52 370.303 54.192C371.423 54.864 372.655 55.2 373.999 55.2C375.343 55.2 376.559 54.864 377.647 54.192C378.767 53.52 379.647 52.576 380.287 51.36C380.959 50.144 381.295 48.752 381.295 47.184ZM413.323 34.32C414.155 34.32 414.843 34.608 415.387 35.184C415.931 35.728 416.203 36.416 416.203 37.248V49.44C416.203 52.896 415.243 55.6 413.323 57.552C411.435 59.504 408.731 60.48 405.211 60.48C401.691 60.48 398.987 59.504 397.099 57.552C395.211 55.6 394.267 52.896 394.267 49.44V37.248C394.267 36.416 394.539 35.728 395.083 35.184C395.627 34.608 396.315 34.32 397.147 34.32C397.979 34.32 398.667 34.608 399.211 35.184C399.755 35.728 400.027 36.416 400.027 37.248V49.44C400.027 51.392 400.459 52.848 401.323 53.808C402.187 54.736 403.483 55.2 405.211 55.2C406.971 55.2 408.283 54.736 409.147 53.808C410.011 52.848 410.443 51.392 410.443 49.44V37.248C410.443 36.416 410.715 35.728 411.259 35.184C411.803 34.608 412.491 34.32 413.323 34.32ZM438.567 33.84C441.831 33.84 444.087 34.816 445.335 36.768C446.583 38.688 447.207 41.36 447.207 44.784V57.072C447.207 57.904 446.935 58.608 446.391 59.184C445.847 59.728 445.159 60 444.327 60C443.495 60 442.807 59.728 442.263 59.184C441.719 58.608 441.447 57.904 441.447 57.072V44.784C441.447 43.024 441.079 41.648 440.343 40.656C439.607 39.632 438.343 39.12 436.551 39.12C434.695 39.12 433.239 39.664 432.183 40.752C431.127 41.808 430.599 43.152 430.599 44.784V57.072C430.599 57.904 430.327 58.608 429.783 59.184C429.239 59.728 428.551 60 427.719 60C426.887 60 426.199 59.728 425.655 59.184C425.111 58.608 424.839 57.904 424.839 57.072V37.248C424.839 36.416 425.111 35.728 425.655 35.184C426.199 34.608 426.887 34.32 427.719 34.32C428.551 34.32 429.239 34.608 429.783 35.184C430.327 35.728 430.599 36.416 430.599 37.248V38.064C431.463 36.912 432.583 35.92 433.959 35.088C435.367 34.256 436.903 33.84 438.567 33.84ZM476.616 24.48C477.448 24.48 478.136 24.752 478.68 25.296C479.224 25.84 479.496 26.544 479.496 27.408V57.072C479.496 57.904 479.224 58.608 478.68 59.184C478.136 59.728 477.448 60 476.616 60C475.784 60 475.096 59.728 474.552 59.184C474.04 58.64 473.768 57.952 473.736 57.12C472.936 58.048 471.848 58.848 470.472 59.52C469.128 60.16 467.704 60.48 466.2 60.48C463.992 60.48 461.992 59.92 460.2 58.8C458.408 57.648 456.984 56.064 455.928 54.048C454.904 52.032 454.392 49.744 454.392 47.184C454.392 44.624 454.904 42.336 455.928 40.32C456.952 38.272 458.344 36.688 460.104 35.568C461.896 34.416 463.864 33.84 466.008 33.84C467.544 33.84 468.984 34.128 470.328 34.704C471.672 35.248 472.808 35.952 473.736 36.816V27.408C473.736 26.576 474.008 25.888 474.552 25.344C475.096 24.768 475.784 24.48 476.616 24.48ZM466.92 55.2C469 55.2 470.696 54.448 472.008 52.944C473.32 51.408 473.976 49.488 473.976 47.184C473.976 44.88 473.32 42.96 472.008 41.424C470.696 39.888 469 39.12 466.92 39.12C464.872 39.12 463.192 39.888 461.88 41.424C460.568 42.96 459.912 44.88 459.912 47.184C459.912 49.488 460.552 51.408 461.832 52.944C463.144 54.448 464.84 55.2 466.92 55.2ZM508.923 33.84C509.755 33.84 510.443 34.112 510.987 34.656C511.531 35.2 511.803 35.904 511.803 36.768V57.072C511.803 57.904 511.531 58.608 510.987 59.184C510.443 59.728 509.755 60 508.923 60C508.091 60 507.403 59.728 506.859 59.184C506.347 58.64 506.075 57.952 506.043 57.12C505.243 58.048 504.155 58.848 502.779 59.52C501.435 60.16 500.011 60.48 498.507 60.48C496.299 60.48 494.299 59.92 492.507 58.8C490.715 57.648 489.291 56.064 488.235 54.048C487.211 52.032 486.699 49.744 486.699 47.184C486.699 44.624 487.211 42.336 488.235 40.32C489.259 38.272 490.651 36.688 492.411 35.568C494.203 34.416 496.171 33.84 498.315 33.84C499.851 33.84 501.291 34.128 502.635 34.704C503.979 35.248 505.115 35.952 506.043 36.816V36.768C506.043 35.936 506.315 35.248 506.859 34.704C507.403 34.128 508.091 33.84 508.923 33.84ZM499.227 55.2C501.307 55.2 503.003 54.448 504.315 52.944C505.627 51.408 506.283 49.488 506.283 47.184C506.283 44.88 505.627 42.96 504.315 41.424C503.003 39.888 501.307 39.12 499.227 39.12C497.179 39.12 495.499 39.888 494.187 41.424C492.875 42.96 492.219 44.88 492.219 47.184C492.219 49.488 492.859 51.408 494.139 52.944C495.451 54.448 497.147 55.2 499.227 55.2ZM532.829 54.576C533.277 54.576 533.677 54.8 534.029 55.248C534.413 55.664 534.605 56.224 534.605 56.928C534.605 57.792 534.125 58.528 533.165 59.136C532.237 59.712 531.181 60 529.997 60C528.013 60 526.333 59.584 524.957 58.752C523.613 57.888 522.941 56.08 522.941 53.328V40.08H520.733C519.965 40.08 519.325 39.824 518.813 39.312C518.301 38.8 518.045 38.16 518.045 37.392C518.045 36.656 518.301 36.048 518.813 35.568C519.325 35.056 519.965 34.8 520.733 34.8H522.941V31.728C522.941 30.896 523.213 30.208 523.757 29.664C524.333 29.088 525.037 28.8 525.869 28.8C526.669 28.8 527.341 29.088 527.885 29.664C528.429 30.208 528.701 30.896 528.701 31.728V34.8H532.109C532.877 34.8 533.517 35.056 534.029 35.568C534.541 36.08 534.797 36.72 534.797 37.488C534.797 38.224 534.541 38.848 534.029 39.36C533.517 39.84 532.877 40.08 532.109 40.08H528.701V53.088C528.701 53.76 528.877 54.256 529.229 54.576C529.581 54.864 530.061 55.008 530.669 55.008C530.925 55.008 531.277 54.944 531.725 54.816C532.109 54.656 532.477 54.576 532.829 54.576ZM547.91 57.072C547.91 57.904 547.638 58.608 547.094 59.184C546.55 59.728 545.862 60 545.03 60C544.198 60 543.51 59.728 542.966 59.184C542.422 58.608 542.15 57.904 542.15 57.072V37.248C542.15 36.416 542.422 35.728 542.966 35.184C543.51 34.608 544.198 34.32 545.03 34.32C545.862 34.32 546.55 34.608 547.094 35.184C547.638 35.728 547.91 36.416 547.91 37.248V57.072ZM544.982 31.2C543.894 31.2 543.126 31.024 542.678 30.672C542.23 30.32 542.006 29.696 542.006 28.8V27.888C542.006 26.992 542.246 26.368 542.726 26.016C543.206 25.664 543.974 25.488 545.03 25.488C546.15 25.488 546.934 25.664 547.382 26.016C547.83 26.368 548.054 26.992 548.054 27.888V28.8C548.054 29.728 547.814 30.368 547.334 30.72C546.886 31.04 546.102 31.2 544.982 31.2ZM580.901 47.184C580.901 49.744 580.325 52.048 579.173 54.096C578.021 56.112 576.437 57.68 574.421 58.8C572.437 59.92 570.245 60.48 567.845 60.48C565.413 60.48 563.205 59.92 561.221 58.8C559.237 57.68 557.669 56.112 556.517 54.096C555.365 52.048 554.789 49.744 554.789 47.184C554.789 44.624 555.365 42.336 556.517 40.32C557.669 38.272 559.237 36.688 561.221 35.568C563.205 34.416 565.413 33.84 567.845 33.84C570.245 33.84 572.437 34.416 574.421 35.568C576.437 36.688 578.021 38.272 579.173 40.32C580.325 42.336 580.901 44.624 580.901 47.184ZM575.141 47.184C575.141 45.616 574.805 44.224 574.133 43.008C573.493 41.76 572.613 40.8 571.493 40.128C570.405 39.456 569.189 39.12 567.845 39.12C566.501 39.12 565.269 39.456 564.149 40.128C563.061 40.8 562.181 41.76 561.509 43.008C560.869 44.224 560.549 45.616 560.549 47.184C560.549 48.752 560.869 50.144 561.509 51.36C562.181 52.576 563.061 53.52 564.149 54.192C565.269 54.864 566.501 55.2 567.845 55.2C569.189 55.2 570.405 54.864 571.493 54.192C572.613 53.52 573.493 52.576 574.133 51.36C574.805 50.144 575.141 48.752 575.141 47.184ZM601.842 33.84C605.106 33.84 607.362 34.816 608.61 36.768C609.858 38.688 610.482 41.36 610.482 44.784V57.072C610.482 57.904 610.21 58.608 609.666 59.184C609.122 59.728 608.434 60 607.602 60C606.77 60 606.082 59.728 605.538 59.184C604.994 58.608 604.722 57.904 604.722 57.072V44.784C604.722 43.024 604.354 41.648 603.618 40.656C602.882 39.632 601.618 39.12 599.826 39.12C597.97 39.12 596.514 39.664 595.458 40.752C594.402 41.808 593.874 43.152 593.874 44.784V57.072C593.874 57.904 593.602 58.608 593.058 59.184C592.514 59.728 591.826 60 590.994 60C590.162 60 589.474 59.728 588.93 59.184C588.386 58.608 588.114 57.904 588.114 57.072V37.248C588.114 36.416 588.386 35.728 588.93 35.184C589.474 34.608 590.162 34.32 590.994 34.32C591.826 34.32 592.514 34.608 593.058 35.184C593.602 35.728 593.874 36.416 593.874 37.248V38.064C594.738 36.912 595.858 35.92 597.234 35.088C598.642 34.256 600.178 33.84 601.842 33.84Z" fill="black"/>
<rect width="41" height="41" fill="white" transform="scale(2)"/>
<path d="M0 0V65.1918H7.25739V7.25749H74.7426V74.7425H13.1235V74.7447H0V82H82V0H0Z" fill="black"/>
</svg>
